<svg xmlns="http://www.w3.org/2000/svg" viewBox="0 0 100 100" width="100" height="100">
  <path xmlns="http://www.w3.org/2000/svg" d="M50 15c-7.39 0-14.594 2.341-20.572 6.684-5.979 4.344-10.431 10.472-12.715 17.5-2.284 7.029-2.284 14.603 0 21.632 2.284 7.028 6.736 13.156 12.715 17.5C35.406 82.659 42.61 85 50 85c7.39 0 14.594-2.341 20.572-6.684 5.979-4.344 10.431-10.472 12.715-17.5 2.284-7.029 2.284-14.603 0-21.632-2.284-7.028-6.736-13.156-12.715-17.5C64.594 17.341 57.39 15 50 15z" fill="none" stroke="#ffffff" stroke-width="10" stroke-dasharray="164.93308927544908,54.977696425149695" stroke-dashoffset="219.910786" stroke-linecap="round"/>
</svg>
